{"asset":{"generator":"glTF-Transform v3.5.1","version":"2.0","extras":{"author":"Minneapolis Institute of Art (https://sketchfab.com/artsmia)","license":"CC0-1.0 (http://creativecommons.org/publicdomain/zero/1.0/)","source":"https://sketchfab.com/3d-models/12th-c-ce-water-moon-guanyin-f3316610c8b740c595c22ca1d7df54ca","title":"12th C CE Water-Moon Guanyin"}},"accessors":[{"type":"VEC3","componentType":5126,"count":65532,"max":[0.2013700008392334,0.8017989993095398,0.3904480040073395],"min":[-0.6136569976806641,0.3592259883880615,-0.6338899731636047],"bufferView":0,"byteOffset":0},{"type":"VEC3","componentType":5126,"count":65532,"bufferView":0,"byteOffset":12},{"type":"VEC4","componentType":5126,"count":65532,"bufferView":0,"byteOffset":24},{"type":"VEC2","componentType":5126,"count":65532,"bufferView":0,"byteOffset":40},{"type":"VEC3","componentType":5126,"count":65532,"max":[0.21414099633693695,0.825543999671936,0.28844699263572693],"min":[-0.6121060252189636,0.34084999561309814,-0.633446991443634],"bufferView":1,"byteOffset":0},{"type":"VEC3","componentType":5126,"count":65532,"bufferView":1,"byteOffset":12},{"type":"VEC4","componentType":5126,"count":65532,"bufferView":1,"byteOffset":24},{"type":"VEC2","componentType":5126,"count":65532,"bufferView":1,"byteOffset":40},{"type":"VEC3","componentType":5126,"count":9397,"max":[0.04714599996805191,0.7720239758491516,-0.25084200501441956],"min":[-0.6131219863891602,0.3962860107421875,-0.37390801310539246],"bufferView":2,"byteOffset":0},{"type":"VEC3","componentType":5126,"count":9397,"bufferView":2,"byteOffset":12},{"type":"VEC4","componentType":5126,"count":9397,"bufferView":2,"byteOffset":24},{"type":"VEC2","componentType":5126,"count":9397,"bufferView":2,"byteOffset":40},{"type":"SCALAR","componentType":5125,"count":295554,"bufferView":3,"byteOffset":0},{"type":"SCALAR","componentType":5125,"count":276345,"bufferView":3,"byteOffset":1182216},{"type":"SCALAR","componentType":5125,"count":33489,"bufferView":3,"byteOffset":2287596}],"bufferViews":[{"buffer":0,"byteOffset":0,"byteLength":3145536,"byteStride":48,"target":34962},{"buffer":0,"byteOffset":3145536,"byteLength":3145536,"byteStride":48,"target":34962},{"buffer":0,"byteOffset":6291072,"byteLength":451056,"byteStride":48,"target":34962},{"buffer":0,"byteOffset":6742128,"byteLength":2421552,"target":34963}],"samplers":[{"magFilter":9729,"minFilter":9987,"wrapS":10497,"wrapT":10497}],"textures":[{"source":0,"sampler":0},{"source":1,"sampler":0}],"images":[{"mimeType":"image/jpeg","uri":"textures/170516_mia337_032122_600_200Kfaces_8192px_OBJ_baseColor.jpeg"},{"mimeType":"image/png","uri":"textures/170516_mia337_032122_600_200Kfaces_8192px_OBJ_normal.png"}],"buffers":[{"uri":"scene.bin","byteLength":9163680}],"materials":[{"name":"170516_mia337_032122_600_200Kfaces_8192px_OBJ","doubleSided":true,"pbrMetallicRoughness":{"roughnessFactor":0.6,"metallicFactor":0,"baseColorTexture":{"index":0}},"normalTexture":{"index":1}}],"meshes":[{"name":"Object_0","primitives":[{"attributes":{"NORMAL":1,"POSITION":0,"TANGENT":2,"TEXCOORD_0":3},"mode":4,"material":0,"indices":12}]},{"name":"Object_1","primitives":[{"attributes":{"NORMAL":5,"POSITION":4,"TANGENT":6,"TEXCOORD_0":7},"mode":4,"material":0,"indices":13}]},{"name":"Object_2","primitives":[{"attributes":{"NORMAL":9,"POSITION":8,"TANGENT":10,"TEXCOORD_0":11},"mode":4,"material":0,"indices":14}]}],"nodes":[{"name":"Sketchfab_model","rotation":[-0.7071067811865475,0,0,0.7071067811865476],"scale":[1.4285714626312256,1.4285714626312256,1.4285714626312256],"children":[1]},{"name":"170516_mia337_032122_600_200Kfaces_8192px_OBJ.obj.cleaner.materialmerger.gles","children":[2,3,4]},{"name":"Object_2","mesh":0},{"name":"Object_3","mesh":1},{"name":"Object_4","mesh":2}],"scenes":[{"name":"Sketchfab_Scene","nodes":[0]}],"scene":0}