{"asset":{"generator":"glTF-Transform v3.5.1","version":"2.0","extras":{"author":"Världskulturmuseerna (https://sketchfab.com/varldskulturmuseerna)","license":"CC0-1.0 (http://creativecommons.org/publicdomain/zero/1.0/)","source":"https://sketchfab.com/3d-models/coptic-prayer-book-500ec4621d764f0dadb8edc93b8700ae","title":"Coptic prayer book"}},"accessors":[{"type":"VEC3","componentType":5126,"count":65532,"max":[1.0390530824661255,0.8073453903198242,0.7330403327941895],"min":[-0.9140587449073792,-0.5822739005088806,-0.7963390350341797],"bufferView":0,"byteOffset":0},{"type":"VEC3","componentType":5126,"count":65532,"bufferView":0,"byteOffset":12},{"type":"VEC4","componentType":5126,"count":65532,"bufferView":0,"byteOffset":24},{"type":"VEC2","componentType":5126,"count":65532,"bufferView":0,"byteOffset":40},{"type":"VEC3","componentType":5126,"count":63309,"max":[1.0301579236984253,0.7856029272079468,0.7368807792663574],"min":[-0.9417910575866699,-0.6753188371658325,-0.8141908645629883],"bufferView":1,"byteOffset":0},{"type":"VEC3","componentType":5126,"count":63309,"bufferView":1,"byteOffset":12},{"type":"VEC4","componentType":5126,"count":63309,"bufferView":1,"byteOffset":24},{"type":"VEC2","componentType":5126,"count":63309,"bufferView":1,"byteOffset":40},{"type":"SCALAR","componentType":5125,"count":353490,"bufferView":2,"byteOffset":0},{"type":"SCALAR","componentType":5125,"count":312564,"bufferView":2,"byteOffset":1413960}],"bufferViews":[{"buffer":0,"byteOffset":0,"byteLength":3145536,"byteStride":48,"target":34962},{"buffer":0,"byteOffset":3145536,"byteLength":3038832,"byteStride":48,"target":34962},{"buffer":0,"byteOffset":6184368,"byteLength":2664216,"target":34963}],"samplers":[{"magFilter":9729,"minFilter":9987,"wrapS":10497,"wrapT":10497}],"textures":[{"source":0,"sampler":0},{"source":2,"sampler":0},{"source":1,"sampler":0}],"images":[{"mimeType":"image/png","uri":"textures/material0_baseColor.png"},{"mimeType":"image/png","uri":"textures/material0_metallicRoughness.png"},{"mimeType":"image/png","uri":"textures/material0_normal.png"}],"buffers":[{"uri":"scene.bin","byteLength":8848584}],"materials":[{"name":"material0","doubleSided":true,"pbrMetallicRoughness":{"roughnessFactor":0.8949056661,"metallicFactor":0,"baseColorTexture":{"index":0},"metallicRoughnessTexture":{"index":2}},"normalTexture":{"index":1,"scale":0.6114710365853658}}],"meshes":[{"name":"Model_material0_0","primitives":[{"attributes":{"NORMAL":1,"POSITION":0,"TANGENT":2,"TEXCOORD_0":3},"mode":4,"material":0,"indices":8}]},{"name":"Model_material0_0","primitives":[{"attributes":{"NORMAL":5,"POSITION":4,"TANGENT":6,"TEXCOORD_0":7},"mode":4,"material":0,"indices":9}]}],"nodes":[{"name":"Sketchfab_model","rotation":[-0.7071067811865475,0,0,0.7071067811865476],"children":[1]},{"name":"CopticBookModel.fbx","rotation":[0.7071067811865475,0,0,0.7071067811865476],"children":[2]},{"name":"RootNode","children":[3]},{"name":"Model","rotation":[-0.3988425134536774,-0.03509397552823409,0.05987918732553933,0.9143891651090414],"scale":[100.00000762939453,99.99999999999999,100.00000762939453],"children":[4,5]},{"name":"Model_material0_0","mesh":0},{"name":"Model_material0_0","mesh":1}],"scenes":[{"name":"Sketchfab_Scene","nodes":[0]}],"scene":0}