{"asset":{"generator":"glTF-Transform v3.5.1","version":"2.0","extras":{"author":"Cleveland Museum of Art (https://sketchfab.com/clevelandart)","license":"CC0-1.0 (http://creativecommons.org/publicdomain/zero/1.0/)","source":"https://sketchfab.com/3d-models/1972158-pair-of-guardian-kings-nio-2b0872d545f943e5aa1fcd23568cc405","title":"1972.158 Pair of Guardian Kings (Nio)"}},"accessors":[{"type":"VEC3","componentType":5126,"count":41767,"max":[0.42454099655151367,0.362650990486145,2.0893681049346924],"min":[-0.4707790017127991,-0.3299719989299774,0.24516500532627106],"bufferView":0,"byteOffset":0},{"type":"VEC3","componentType":5126,"count":41767,"bufferView":0,"byteOffset":12},{"type":"VEC4","componentType":5126,"count":41767,"bufferView":0,"byteOffset":24},{"type":"VEC2","componentType":5126,"count":41767,"bufferView":0,"byteOffset":40},{"type":"VEC3","componentType":5126,"count":41819,"max":[0.40809500217437744,0.3194330036640167,2.064876079559326],"min":[-0.4322510063648224,-0.3054009974002838,0.21489399671554565],"bufferView":1,"byteOffset":0},{"type":"VEC3","componentType":5126,"count":41819,"bufferView":1,"byteOffset":12},{"type":"VEC4","componentType":5126,"count":41819,"bufferView":1,"byteOffset":24},{"type":"VEC2","componentType":5126,"count":41819,"bufferView":1,"byteOffset":40},{"type":"SCALAR","componentType":5125,"count":239988,"bufferView":2,"byteOffset":0},{"type":"SCALAR","componentType":5125,"count":239934,"bufferView":2,"byteOffset":959952}],"bufferViews":[{"buffer":0,"byteOffset":0,"byteLength":2004816,"byteStride":48,"target":34962},{"buffer":0,"byteOffset":2004816,"byteLength":2007312,"byteStride":48,"target":34962},{"buffer":0,"byteOffset":4012128,"byteLength":1919688,"target":34963}],"samplers":[{"magFilter":9729,"minFilter":9987,"wrapS":10497,"wrapT":10497}],"textures":[{"source":0,"sampler":0},{"source":2,"sampler":0},{"source":1,"sampler":0},{"source":3,"sampler":0},{"source":5,"sampler":0},{"source":4,"sampler":0}],"images":[{"mimeType":"image/jpeg","uri":"textures/Guardian_1_Mat_baseColor.jpeg"},{"mimeType":"image/png","uri":"textures/Guardian_1_Mat_metallicRoughness.png"},{"mimeType":"image/png","uri":"textures/Guardian_1_Mat_normal.png"},{"mimeType":"image/jpeg","uri":"textures/Guardian_2_Mat_baseColor.jpeg"},{"mimeType":"image/png","uri":"textures/Guardian_2_Mat_metallicRoughness.png"},{"mimeType":"image/png","uri":"textures/Guardian_2_Mat_normal.png"}],"buffers":[{"uri":"scene.bin","byteLength":5931816}],"materials":[{"name":"Guardian_1_Mat","pbrMetallicRoughness":{"baseColorTexture":{"index":0},"metallicRoughnessTexture":{"index":2}},"normalTexture":{"index":1},"occlusionTexture":{"index":2}},{"name":"Guardian_2_Mat","pbrMetallicRoughness":{"baseColorTexture":{"index":3},"metallicRoughnessTexture":{"index":5}},"normalTexture":{"index":4},"occlusionTexture":{"index":5}}],"meshes":[{"name":"Guardian 1_Guardian 1 Mat_0","primitives":[{"attributes":{"NORMAL":1,"POSITION":0,"TANGENT":2,"TEXCOORD_0":3},"mode":4,"material":0,"indices":8}]},{"name":"Guardian 2_Guardian 2 Mat_0","primitives":[{"attributes":{"NORMAL":5,"POSITION":4,"TANGENT":6,"TEXCOORD_0":7},"mode":4,"material":1,"indices":9}]}],"nodes":[{"name":"Sketchfab_model","translation":[0.0010674209333956242,-1.0295252645086452e-8,-0.023903541266918182],"rotation":[-0.5,-0.4999999999999999,-0.5,0.5000000000000001],"children":[1]},{"name":"4f709ac03440448b8f878159b0d45c00.fbx","rotation":[0.7071067811865475,0,0,0.7071067811865476],"scale":[0.009999999776482582,0.009999999776482582,0.009999999776482582],"children":[2]},{"name":"RootNode","children":[3,5]},{"name":"Guardian 1","translation":[0,0,-61.42838668823242],"rotation":[-0.401989158669021,0.5817256662195842,0.5817255135369801,0.40198929397944233],"scale":[100.00000762939455,100.00000762939455,100],"children":[4]},{"name":"Guardian 1_Guardian 1 Mat_0","mesh":0},{"name":"Guardian 2","translation":[4.442984580993652,0,61.176483154296875],"rotation":[-0.575125956897124,-0.41137595855657744,-0.41137595257111637,0.5751258819345824],"scale":[100.00000762939453,100.00000762939453,100],"children":[6]},{"name":"Guardian 2_Guardian 2 Mat_0","mesh":1}],"scenes":[{"name":"Sketchfab_Scene","nodes":[0]}],"scene":0}