{"asset":{"generator":"glTF-Transform v3.5.1","version":"2.0","extras":{"author":"Virtual Museums of Małopolska (https://sketchfab.com/WirtualneMuzeaMalopolski)","license":"CC0-1.0 (http://creativecommons.org/publicdomain/zero/1.0/)","source":"https://sketchfab.com/3d-models/sculpture-bust-of-roza-loewenfeld-fc6e731a0131471ba8e45511c7ea9996","title":"Sculpture “Bust of Róża Loewenfeld”"}},"accessors":[{"type":"VEC3","componentType":5126,"count":32930,"max":[350.71441650390625,216.18405151367188,532.2510375976562],"min":[0,0,0],"bufferView":0,"byteOffset":0},{"type":"VEC3","componentType":5126,"count":32930,"bufferView":0,"byteOffset":12},{"type":"VEC4","componentType":5126,"count":32930,"bufferView":0,"byteOffset":24},{"type":"VEC2","componentType":5126,"count":32930,"bufferView":0,"byteOffset":40},{"type":"SCALAR","componentType":5125,"count":182364,"bufferView":1,"byteOffset":0}],"bufferViews":[{"buffer":0,"byteOffset":0,"byteLength":1580640,"byteStride":48,"target":34962},{"buffer":0,"byteOffset":1580640,"byteLength":729456,"target":34963}],"samplers":[{"magFilter":9729,"minFilter":9987,"wrapS":10497,"wrapT":10497}],"textures":[{"source":0,"sampler":0},{"source":1,"sampler":0},{"source":3,"sampler":0},{"source":2,"sampler":0}],"images":[{"mimeType":"image/jpeg","uri":"textures/defaultMat_diffuse.jpeg"},{"mimeType":"image/png","uri":"textures/defaultMat_normal.png"},{"mimeType":"image/png","uri":"specular_1.png"},{"mimeType":"image/png","uri":"metallicRoughness_1.png"}],"buffers":[{"uri":"scene.bin","byteLength":2310096}],"materials":[{"name":"defaultMat","doubleSided":true,"pbrMetallicRoughness":{"metallicFactor":0,"baseColorTexture":{"index":0},"metallicRoughnessTexture":{"index":2}},"normalTexture":{"index":1},"extensions":{"KHR_materials_ior":{"ior":1000},"KHR_materials_specular":{"specularColorFactor":[0,0,0],"specularTexture":{"index":3},"specularColorTexture":{"index":3}}}}],"meshes":[{"name":"Object_0","primitives":[{"attributes":{"NORMAL":1,"POSITION":0,"TANGENT":2,"TEXCOORD_0":3},"mode":4,"material":0,"indices":4}]}],"nodes":[{"name":"Sketchfab_model","rotation":[-0.7071067811865475,0,0,0.7071067811865476],"children":[1]},{"name":"MCh_S_12_Rzezba_Popiersie_Rozy_Loewenfeld.OBJ.cleaner.gles","translation":[-179.27061462402344,-104.73188018798828,-222.3562774658203],"children":[2]},{"name":"Object_2","children":[3]},{"name":"Object_3","mesh":0}],"scenes":[{"name":"Sketchfab_Scene","nodes":[0]}],"scene":0,"extensionsUsed":["KHR_materials_ior","KHR_materials_specular"]}