{"asset":{"generator":"glTF-Transform v3.5.1","version":"2.0","extras":{"author":"Minneapolis Institute of Art (https://sketchfab.com/artsmia)","license":"CC0-1.0 (http://creativecommons.org/publicdomain/zero/1.0/)","source":"https://sketchfab.com/3d-models/netsuke-snake-curled-around-a-turtle-4c379e58642c471fad32406fe90c7cc4","title":"Netsuke - Snake curled around a turtle"}},"accessors":[{"type":"VEC3","componentType":5126,"count":14954,"max":[2.477992057800293,27.790203094482422,0.9113280177116394],"min":[0.5806130170822144,26.130088806152344,-0.49466899037361145],"bufferView":0,"byteOffset":0},{"type":"VEC3","componentType":5126,"count":14954,"bufferView":0,"byteOffset":12},{"type":"VEC4","componentType":5126,"count":14954,"bufferView":0,"byteOffset":24},{"type":"VEC2","componentType":5126,"count":14954,"bufferView":0,"byteOffset":40},{"type":"SCALAR","componentType":5125,"count":19188,"bufferView":1,"byteOffset":0}],"bufferViews":[{"buffer":0,"byteOffset":0,"byteLength":717792,"byteStride":48,"target":34962},{"buffer":0,"byteOffset":717792,"byteLength":76752,"target":34963}],"samplers":[{"magFilter":9729,"minFilter":9987,"wrapS":10497,"wrapT":10497}],"textures":[{"source":0,"sampler":0},{"source":2,"sampler":0},{"source":1,"sampler":0}],"images":[{"mimeType":"image/jpeg","uri":"textures/aiStandardSurface1SG_baseColor.jpeg"},{"mimeType":"image/png","uri":"textures/aiStandardSurface1SG_metallicRoughness.png"},{"mimeType":"image/png","uri":"textures/aiStandardSurface1SG_normal.png"}],"buffers":[{"uri":"scene.bin","byteLength":794544}],"materials":[{"name":"aiStandardSurface1SG","doubleSided":true,"pbrMetallicRoughness":{"metallicFactor":0,"baseColorTexture":{"index":0},"metallicRoughnessTexture":{"index":2}},"normalTexture":{"index":1}}],"meshes":[{"name":"Object_0","primitives":[{"attributes":{"NORMAL":1,"POSITION":0,"TANGENT":2,"TEXCOORD_0":3},"mode":4,"material":0,"indices":4}]}],"nodes":[{"name":"Sketchfab_model","translation":[-0.3335469663143158,-2.163795232772827,-0.12491998821497012],"rotation":[-0.673496347802139,0.045162464292162405,-0.04936424089667444,0.7361563645655738],"scale":[0.07220958011525479,0.07220958264729599,0.07220958360614342],"children":[1]},{"name":"190102_122704_202_64Kmesh_OBJ_LowRes_.obj.cleaner.materialmerger.gles","children":[2]},{"name":"Object_2","mesh":0}],"scenes":[{"name":"Sketchfab_Scene","nodes":[0]}],"scene":0}