{"asset":{"generator":"glTF-Transform v3.5.1","version":"2.0","extras":{"author":"The Smithsonian Institution (https://sketchfab.com/Smithsonian)","license":"CC0-1.0 (http://creativecommons.org/publicdomain/zero/1.0/)","source":"https://sketchfab.com/3d-models/orbiter-space-shuttle-ov-103-discovery-5f7176a2ae284d6b99fc970c9d265c04","title":"Orbiter Space Shuttle OV-103 Discovery"}},"accessors":[{"type":"VEC3","componentType":5126,"count":65532,"max":[11.904379844665527,7.913379192352295,18.797090530395508],"min":[-11.905440330505371,-7.913118839263916,-18.796480178833008],"bufferView":0,"byteOffset":0},{"type":"VEC3","componentType":5126,"count":65532,"bufferView":0,"byteOffset":12},{"type":"VEC4","componentType":5126,"count":65532,"bufferView":0,"byteOffset":24},{"type":"VEC2","componentType":5126,"count":65532,"bufferView":0,"byteOffset":40},{"type":"VEC2","componentType":5126,"count":65532,"bufferView":0,"byteOffset":48},{"type":"VEC2","componentType":5126,"count":65532,"bufferView":0,"byteOffset":56},{"type":"VEC3","componentType":5126,"count":65534,"max":[11.895730018615723,7.913379192352295,18.339679718017578],"min":[-11.900130271911621,-7.904812812805176,-18.500539779663086],"bufferView":1,"byteOffset":0},{"type":"VEC3","componentType":5126,"count":65534,"bufferView":1,"byteOffset":12},{"type":"VEC4","componentType":5126,"count":65534,"bufferView":1,"byteOffset":24},{"type":"VEC2","componentType":5126,"count":65534,"bufferView":1,"byteOffset":40},{"type":"VEC2","componentType":5126,"count":65534,"bufferView":1,"byteOffset":48},{"type":"VEC2","componentType":5126,"count":65534,"bufferView":1,"byteOffset":56},{"type":"VEC3","componentType":5126,"count":459,"max":[10.362629890441895,7.192969799041748,17.441869735717773],"min":[-10.878959655761719,-5.9685258865356445,-16.29928970336914],"bufferView":2,"byteOffset":0},{"type":"VEC3","componentType":5126,"count":459,"bufferView":2,"byteOffset":12},{"type":"VEC4","componentType":5126,"count":459,"bufferView":2,"byteOffset":24},{"type":"VEC2","componentType":5126,"count":459,"bufferView":2,"byteOffset":40},{"type":"VEC2","componentType":5126,"count":459,"bufferView":2,"byteOffset":48},{"type":"VEC2","componentType":5126,"count":459,"bufferView":2,"byteOffset":56},{"type":"SCALAR","componentType":5125,"count":263853,"bufferView":3,"byteOffset":0},{"type":"SCALAR","componentType":5125,"count":185220,"bufferView":3,"byteOffset":1055412},{"type":"SCALAR","componentType":5125,"count":927,"bufferView":3,"byteOffset":1796292}],"bufferViews":[{"buffer":0,"byteOffset":0,"byteLength":4194048,"byteStride":64,"target":34962},{"buffer":0,"byteOffset":4194048,"byteLength":4194176,"byteStride":64,"target":34962},{"buffer":0,"byteOffset":8388224,"byteLength":29376,"byteStride":64,"target":34962},{"buffer":0,"byteOffset":8417600,"byteLength":1800000,"target":34963}],"samplers":[{"magFilter":9729,"minFilter":9987,"wrapS":10497,"wrapT":10497}],"textures":[{"source":0,"sampler":0},{"source":2,"sampler":0},{"source":1,"sampler":0}],"images":[{"mimeType":"image/jpeg","uri":"textures/default_baseColor.jpeg"},{"mimeType":"image/png","uri":"textures/default_metallicRoughness.png"},{"mimeType":"image/png","uri":"textures/default_normal.png"}],"buffers":[{"uri":"scene.bin","byteLength":10217600}],"materials":[{"name":"default","pbrMetallicRoughness":{"roughnessFactor":0.44409091833866005,"metallicFactor":0.1,"baseColorTexture":{"index":0},"metallicRoughnessTexture":{"index":2,"texCoord":1}},"normalTexture":{"index":1,"texCoord":2},"occlusionTexture":{"index":2,"texCoord":1}}],"meshes":[{"name":"Object_0","primitives":[{"attributes":{"NORMAL":1,"POSITION":0,"TANGENT":2,"TEXCOORD_0":3,"TEXCOORD_1":4,"TEXCOORD_2":5},"mode":4,"material":0,"indices":18}]},{"name":"Object_1","primitives":[{"attributes":{"NORMAL":7,"POSITION":6,"TANGENT":8,"TEXCOORD_0":9,"TEXCOORD_1":10,"TEXCOORD_2":11},"mode":4,"material":0,"indices":19}]},{"name":"Object_2","primitives":[{"attributes":{"NORMAL":13,"POSITION":12,"TANGENT":14,"TEXCOORD_0":15,"TEXCOORD_1":16,"TEXCOORD_2":17},"mode":4,"material":0,"indices":20}]}],"nodes":[{"name":"Sketchfab_model","translation":[0,0.000041574021452106535,-0.000014861084309814024],"rotation":[-0.6560730579435274,0,0,0.754697384811044],"children":[1]},{"name":"root","children":[2]},{"name":"GLTF_SceneRootNode","rotation":[0.7071067811865475,0,0,0.7071067811865476],"children":[3]},{"name":"_0","children":[4,5,6]},{"name":"Object_4","mesh":0},{"name":"Object_5","mesh":1},{"name":"Object_6","mesh":2}],"scenes":[{"name":"Sketchfab_Scene","nodes":[0]}],"scene":0}