{"asset":{"generator":"glTF-Transform v3.5.1","version":"2.0","extras":{"author":"Virtual Museums of Małopolska (https://sketchfab.com/WirtualneMuzeaMalopolski)","license":"CC0-1.0 (http://creativecommons.org/publicdomain/zero/1.0/)","source":"https://sketchfab.com/3d-models/hydria-apothecary-vase-7d6938c0c0b54b06a0210a982a73023e","title":"Hydria apothecary vase"}},"accessors":[{"type":"VEC3","componentType":5126,"count":4156,"max":[324.20172119140625,225.6826934814453,428.7789001464844],"min":[0,24.738494873046875,0],"bufferView":0,"byteOffset":0},{"type":"VEC3","componentType":5126,"count":4156,"bufferView":0,"byteOffset":12},{"type":"VEC4","componentType":5126,"count":4156,"bufferView":0,"byteOffset":24},{"type":"VEC2","componentType":5126,"count":4156,"bufferView":0,"byteOffset":40},{"type":"VEC3","componentType":5126,"count":5398,"max":[324.7655029296875,225.6826934814453,428.7789001464844],"min":[0,22.21479034423828,0],"bufferView":1,"byteOffset":0},{"type":"VEC3","componentType":5126,"count":5398,"bufferView":1,"byteOffset":12},{"type":"VEC4","componentType":5126,"count":5398,"bufferView":1,"byteOffset":24},{"type":"VEC2","componentType":5126,"count":5398,"bufferView":1,"byteOffset":40},{"type":"VEC3","componentType":5126,"count":5782,"max":[326.85919189453125,225.7379913330078,428.7789001464844],"min":[0.209808349609375,22.21479034423828,0],"bufferView":2,"byteOffset":0},{"type":"VEC3","componentType":5126,"count":5782,"bufferView":2,"byteOffset":12},{"type":"VEC4","componentType":5126,"count":5782,"bufferView":2,"byteOffset":24},{"type":"VEC2","componentType":5126,"count":5782,"bufferView":2,"byteOffset":40},{"type":"VEC3","componentType":5126,"count":5452,"max":[327.1937255859375,225.93539428710938,428.7001953125],"min":[0.8245086669921875,21.467391967773438,0.0458984375],"bufferView":3,"byteOffset":0},{"type":"VEC3","componentType":5126,"count":5452,"bufferView":3,"byteOffset":12},{"type":"VEC4","componentType":5126,"count":5452,"bufferView":3,"byteOffset":24},{"type":"VEC2","componentType":5126,"count":5452,"bufferView":3,"byteOffset":40},{"type":"VEC3","componentType":5126,"count":4860,"max":[326.3193054199219,225.83938598632812,428.7001953125],"min":[0,22.690093994140625,0.04010009765625],"bufferView":4,"byteOffset":0},{"type":"VEC3","componentType":5126,"count":4860,"bufferView":4,"byteOffset":12},{"type":"VEC4","componentType":5126,"count":4860,"bufferView":4,"byteOffset":24},{"type":"VEC2","componentType":5126,"count":4860,"bufferView":4,"byteOffset":40},{"type":"VEC3","componentType":5126,"count":4118,"max":[326.634521484375,225.70880126953125,426.948486328125],"min":[1.5593109130859375,21.50189208984375,0.0458984375],"bufferView":5,"byteOffset":0},{"type":"VEC3","componentType":5126,"count":4118,"bufferView":5,"byteOffset":12},{"type":"VEC4","componentType":5126,"count":4118,"bufferView":5,"byteOffset":24},{"type":"VEC2","componentType":5126,"count":4118,"bufferView":5,"byteOffset":40},{"type":"VEC3","componentType":5126,"count":23534,"max":[327.1937255859375,284.2511901855469,427.94158935546875],"min":[1.6316070556640625,0,0.1396942138671875],"bufferView":6,"byteOffset":0},{"type":"VEC3","componentType":5126,"count":23534,"bufferView":6,"byteOffset":12},{"type":"VEC4","componentType":5126,"count":23534,"bufferView":6,"byteOffset":24},{"type":"VEC2","componentType":5126,"count":23534,"bufferView":6,"byteOffset":40},{"type":"SCALAR","componentType":5125,"count":9993,"bufferView":7,"byteOffset":0},{"type":"SCALAR","componentType":5125,"count":9993,"bufferView":7,"byteOffset":39972},{"type":"SCALAR","componentType":5125,"count":9930,"bufferView":7,"byteOffset":79944},{"type":"SCALAR","componentType":5125,"count":9543,"bufferView":7,"byteOffset":119664},{"type":"SCALAR","componentType":5125,"count":9048,"bufferView":7,"byteOffset":157836},{"type":"SCALAR","componentType":5125,"count":9081,"bufferView":7,"byteOffset":194028},{"type":"SCALAR","componentType":5125,"count":122418,"bufferView":7,"byteOffset":230352}],"bufferViews":[{"buffer":0,"byteOffset":0,"byteLength":199488,"byteStride":48,"target":34962},{"buffer":0,"byteOffset":199488,"byteLength":259104,"byteStride":48,"target":34962},{"buffer":0,"byteOffset":458592,"byteLength":277536,"byteStride":48,"target":34962},{"buffer":0,"byteOffset":736128,"byteLength":261696,"byteStride":48,"target":34962},{"buffer":0,"byteOffset":997824,"byteLength":233280,"byteStride":48,"target":34962},{"buffer":0,"byteOffset":1231104,"byteLength":197664,"byteStride":48,"target":34962},{"buffer":0,"byteOffset":1428768,"byteLength":1129632,"byteStride":48,"target":34962},{"buffer":0,"byteOffset":2558400,"byteLength":720024,"target":34963}],"samplers":[{"magFilter":9729,"minFilter":9987,"wrapS":10497,"wrapT":10497}],"textures":[{"source":0,"sampler":0},{"source":1,"sampler":0},{"source":3,"sampler":0},{"source":2,"sampler":0}],"images":[{"mimeType":"image/jpeg","uri":"textures/wire_177028149_diffuse.jpeg"},{"mimeType":"image/png","uri":"textures/wire_177028149_normal.png"},{"mimeType":"image/png","uri":"specular_1.png"},{"mimeType":"image/png","uri":"metallicRoughness_1.png"}],"buffers":[{"uri":"scene.bin","byteLength":3278424}],"materials":[{"name":"wire_177028149","doubleSided":true,"pbrMetallicRoughness":{"metallicFactor":0,"baseColorTexture":{"index":0},"metallicRoughnessTexture":{"index":2}},"normalTexture":{"index":1},"extensions":{"KHR_materials_ior":{"ior":1000},"KHR_materials_specular":{"specularColorFactor":[0.07,0.07,0.07],"specularTexture":{"index":3},"specularColorTexture":{"index":3}}}}],"meshes":[{"name":"Object_0","primitives":[{"attributes":{"NORMAL":1,"POSITION":0,"TANGENT":2,"TEXCOORD_0":3},"mode":4,"material":0,"indices":28}]},{"name":"Object_1","primitives":[{"attributes":{"NORMAL":5,"POSITION":4,"TANGENT":6,"TEXCOORD_0":7},"mode":4,"material":0,"indices":29}]},{"name":"Object_2","primitives":[{"attributes":{"NORMAL":9,"POSITION":8,"TANGENT":10,"TEXCOORD_0":11},"mode":4,"material":0,"indices":30}]},{"name":"Object_3","primitives":[{"attributes":{"NORMAL":13,"POSITION":12,"TANGENT":14,"TEXCOORD_0":15},"mode":4,"material":0,"indices":31}]},{"name":"Object_4","primitives":[{"attributes":{"NORMAL":17,"POSITION":16,"TANGENT":18,"TEXCOORD_0":19},"mode":4,"material":0,"indices":32}]},{"name":"Object_5","primitives":[{"attributes":{"NORMAL":21,"POSITION":20,"TANGENT":22,"TEXCOORD_0":23},"mode":4,"material":0,"indices":33}]},{"name":"Object_6","primitives":[{"attributes":{"NORMAL":25,"POSITION":24,"TANGENT":26,"TEXCOORD_0":27},"mode":4,"material":0,"indices":34}]}],"nodes":[{"name":"Sketchfab_model","rotation":[-0.7071067811865475,0,0,0.7071067811865476],"children":[1]},{"name":"KGZ_5919_Waza_typu_hydria_.OBJ.cleaner.gles","translation":[-162.8341064453125,-138.28819274902344,-228.74639892578125],"children":[2]},{"name":"Object_2","children":[3,4,5,6,7,8,9]},{"name":"Object_3","mesh":0},{"name":"Object_4","mesh":1},{"name":"Object_5","mesh":2},{"name":"Object_6","mesh":3},{"name":"Object_7","mesh":4},{"name":"Object_8","mesh":5},{"name":"Object_9","mesh":6}],"scenes":[{"name":"Sketchfab_Scene","nodes":[0]}],"scene":0,"extensionsUsed":["KHR_materials_ior","KHR_materials_specular"]}