{"asset":{"generator":"glTF-Transform v3.5.1","version":"2.0","extras":{"author":"Cleveland Museum of Art (https://sketchfab.com/clevelandart)","license":"CC0-1.0 (http://creativecommons.org/publicdomain/zero/1.0/)","source":"https://sketchfab.com/3d-models/196488-armor-for-man-and-horse-faca2ad557f64809b598c3a646a8804f","title":"1964.88 Armor for Man and Horse"}},"accessors":[{"type":"VEC3","componentType":5126,"count":65532,"max":[0.8864820003509521,-0.6882299780845642,0.8837379813194275],"min":[-1.0814299583435059,-4.402537822723389,-0.6790000200271606],"bufferView":0,"byteOffset":0},{"type":"VEC3","componentType":5126,"count":65532,"bufferView":0,"byteOffset":12},{"type":"VEC4","componentType":5126,"count":65532,"bufferView":0,"byteOffset":24},{"type":"VEC2","componentType":5126,"count":65532,"bufferView":0,"byteOffset":40},{"type":"VEC3","componentType":5126,"count":324,"max":[0.7779380083084106,-0.6890580058097839,0.6312999725341797],"min":[-1.0018739700317383,-2.438282012939453,-0.6378700137138367],"bufferView":1,"byteOffset":0},{"type":"VEC3","componentType":5126,"count":324,"bufferView":1,"byteOffset":12},{"type":"VEC4","componentType":5126,"count":324,"bufferView":1,"byteOffset":24},{"type":"VEC2","componentType":5126,"count":324,"bufferView":1,"byteOffset":40},{"type":"SCALAR","componentType":5125,"count":358368,"bufferView":2,"byteOffset":0},{"type":"SCALAR","componentType":5125,"count":906,"bufferView":2,"byteOffset":1433472}],"bufferViews":[{"buffer":0,"byteOffset":0,"byteLength":3145536,"byteStride":48,"target":34962},{"buffer":0,"byteOffset":3145536,"byteLength":15552,"byteStride":48,"target":34962},{"buffer":0,"byteOffset":3161088,"byteLength":1437096,"target":34963}],"samplers":[{"magFilter":9729,"minFilter":9987,"wrapS":10497,"wrapT":10497}],"textures":[{"source":0,"sampler":0},{"source":2,"sampler":0},{"source":1,"sampler":0}],"images":[{"mimeType":"image/jpeg","uri":"textures/Armor_Mat_baseColor.jpeg"},{"mimeType":"image/png","uri":"textures/Armor_Mat_metallicRoughness.png"},{"mimeType":"image/jpeg","uri":"textures/Armor_Mat_normal.jpeg"}],"buffers":[{"uri":"scene.bin","byteLength":4598184}],"materials":[{"name":"Armor_Mat","doubleSided":true,"pbrMetallicRoughness":{"baseColorTexture":{"index":0},"metallicRoughnessTexture":{"index":2}},"normalTexture":{"index":1},"occlusionTexture":{"index":2}}],"meshes":[{"name":"Object_0","primitives":[{"attributes":{"NORMAL":1,"POSITION":0,"TANGENT":2,"TEXCOORD_0":3},"mode":4,"material":0,"indices":8}]},{"name":"Object_1","primitives":[{"attributes":{"NORMAL":5,"POSITION":4,"TANGENT":6,"TEXCOORD_0":7},"mode":4,"material":0,"indices":9}]}],"nodes":[{"name":"Sketchfab_model","translation":[-0.030204247683286667,-1.2215083837509157,1.3553328514099119],"rotation":[0.9939780178276405,-1.2165785239202856e-17,0.10957965173988693,-6.323195038833834e-14],"children":[1]},{"name":"Horse Armor.obj.cleaner.materialmerger.gles","children":[2,3]},{"name":"Object_2","mesh":0},{"name":"Object_3","mesh":1}],"scenes":[{"name":"Sketchfab_Scene","nodes":[0]}],"scene":0}