{"asset":{"generator":"glTF-Transform v3.5.1","version":"2.0","extras":{"author":"Virtual Museums of Małopolska (https://sketchfab.com/WirtualneMuzeaMalopolski)","license":"CC0-1.0 (http://creativecommons.org/publicdomain/zero/1.0/)","source":"https://sketchfab.com/3d-models/violin-a784af0713a643b19ffcf65194bc0fbf","title":"Violin"}},"accessors":[{"type":"VEC3","componentType":5126,"count":65532,"max":[0.430092990398407,-0.022381000220775604,0.048760298639535904],"min":[-0.18102599680423737,-0.28301799297332764,-0.03413049876689911],"bufferView":0,"byteOffset":0},{"type":"VEC3","componentType":5126,"count":65532,"bufferView":0,"byteOffset":12},{"type":"VEC4","componentType":5126,"count":65532,"bufferView":0,"byteOffset":24},{"type":"VEC2","componentType":5126,"count":65532,"bufferView":0,"byteOffset":40},{"type":"VEC3","componentType":5126,"count":65532,"max":[0.427713006734848,-0.04608349874615669,-0.018061699345707893],"min":[-0.18084600567817688,-0.28317001461982727,-0.03414729982614517],"bufferView":1,"byteOffset":0},{"type":"VEC3","componentType":5126,"count":65532,"bufferView":1,"byteOffset":12},{"type":"VEC4","componentType":5126,"count":65532,"bufferView":1,"byteOffset":24},{"type":"VEC2","componentType":5126,"count":65532,"bufferView":1,"byteOffset":40},{"type":"VEC3","componentType":5126,"count":65532,"max":[0.3555009961128235,-0.024115800857543945,0.03763420134782791],"min":[-0.14710800349712372,-0.18670600652694702,-0.03150879964232445],"bufferView":2,"byteOffset":0},{"type":"VEC3","componentType":5126,"count":65532,"bufferView":2,"byteOffset":12},{"type":"VEC4","componentType":5126,"count":65532,"bufferView":2,"byteOffset":24},{"type":"VEC2","componentType":5126,"count":65532,"bufferView":2,"byteOffset":40},{"type":"VEC3","componentType":5126,"count":65532,"max":[0.3972499966621399,-0.004567040130496025,0.048190198838710785],"min":[-0.15306200087070465,-0.18617400527000427,-0.03619369864463806],"bufferView":3,"byteOffset":0},{"type":"VEC3","componentType":5126,"count":65532,"bufferView":3,"byteOffset":12},{"type":"VEC4","componentType":5126,"count":65532,"bufferView":3,"byteOffset":24},{"type":"VEC2","componentType":5126,"count":65532,"bufferView":3,"byteOffset":40},{"type":"VEC3","componentType":5126,"count":17973,"max":[0.42983201146125793,-0.00016233000496868044,0.03972269967198372],"min":[-0.15004600584506989,-0.24136899411678314,-0.03184949979186058],"bufferView":4,"byteOffset":0},{"type":"VEC3","componentType":5126,"count":17973,"bufferView":4,"byteOffset":12},{"type":"VEC4","componentType":5126,"count":17973,"bufferView":4,"byteOffset":24},{"type":"VEC2","componentType":5126,"count":17973,"bufferView":4,"byteOffset":40},{"type":"SCALAR","componentType":5125,"count":303813,"bufferView":5,"byteOffset":0},{"type":"SCALAR","componentType":5125,"count":334755,"bufferView":5,"byteOffset":1215252},{"type":"SCALAR","componentType":5125,"count":348450,"bufferView":5,"byteOffset":2554272},{"type":"SCALAR","componentType":5125,"count":315144,"bufferView":5,"byteOffset":3948072},{"type":"SCALAR","componentType":5125,"count":77460,"bufferView":5,"byteOffset":5208648}],"bufferViews":[{"buffer":0,"byteOffset":0,"byteLength":3145536,"byteStride":48,"target":34962},{"buffer":0,"byteOffset":3145536,"byteLength":3145536,"byteStride":48,"target":34962},{"buffer":0,"byteOffset":6291072,"byteLength":3145536,"byteStride":48,"target":34962},{"buffer":0,"byteOffset":9436608,"byteLength":3145536,"byteStride":48,"target":34962},{"buffer":0,"byteOffset":12582144,"byteLength":862704,"byteStride":48,"target":34962},{"buffer":0,"byteOffset":13444848,"byteLength":5518488,"target":34963}],"samplers":[{"magFilter":9729,"minFilter":9987,"wrapS":10497,"wrapT":10497}],"textures":[{"source":0,"sampler":0},{"source":2,"sampler":0},{"source":1,"sampler":0}],"images":[{"mimeType":"image/png","uri":"textures/defaultMat_baseColor.png"},{"mimeType":"image/png","uri":"textures/defaultMat_metallicRoughness.png"},{"mimeType":"image/png","uri":"textures/defaultMat_normal.png"}],"buffers":[{"uri":"scene.bin","byteLength":18963336}],"materials":[{"name":"defaultMat","doubleSided":true,"pbrMetallicRoughness":{"baseColorTexture":{"index":0},"metallicRoughnessTexture":{"index":2}},"normalTexture":{"index":1},"occlusionTexture":{"index":2},"extensions":{"KHR_materials_specular":{"specularFactor":0.07488567073170732}}}],"meshes":[{"name":"Object_0","primitives":[{"attributes":{"NORMAL":1,"POSITION":0,"TANGENT":2,"TEXCOORD_0":3},"mode":4,"material":0,"indices":20}]},{"name":"Object_1","primitives":[{"attributes":{"NORMAL":5,"POSITION":4,"TANGENT":6,"TEXCOORD_0":7},"mode":4,"material":0,"indices":21}]},{"name":"Object_2","primitives":[{"attributes":{"NORMAL":9,"POSITION":8,"TANGENT":10,"TEXCOORD_0":11},"mode":4,"material":0,"indices":22}]},{"name":"Object_3","primitives":[{"attributes":{"NORMAL":13,"POSITION":12,"TANGENT":14,"TEXCOORD_0":15},"mode":4,"material":0,"indices":23}]},{"name":"Object_4","primitives":[{"attributes":{"NORMAL":17,"POSITION":16,"TANGENT":18,"TEXCOORD_0":19},"mode":4,"material":0,"indices":24}]}],"nodes":[{"name":"Sketchfab_model","rotation":[-0.4999999999999999,0.5,0.5000000000000001,0.5],"children":[1]},{"name":"MT_E_3270_Skrzypce_8_FIN2.OBJ.cleaner.materialmerger.gles","children":[2,3,4,5,6]},{"name":"Object_2","mesh":0},{"name":"Object_3","mesh":1},{"name":"Object_4","mesh":2},{"name":"Object_5","mesh":3},{"name":"Object_6","mesh":4}],"scenes":[{"name":"Sketchfab_Scene","nodes":[0]}],"scene":0,"extensionsUsed":["KHR_materials_specular"]}