{"asset":{"generator":"glTF-Transform v3.5.1","version":"2.0","extras":{"author":"noe-3d.at (https://sketchfab.com/www.noe-3d.at)","license":"CC0-1.0 (http://creativecommons.org/publicdomain/zero/1.0/)","source":"https://sketchfab.com/3d-models/lowe-4522a4cdc1c14190bf1a8811fa27da32","title":"Löwe"}},"accessors":[{"type":"VEC3","componentType":5126,"count":65532,"max":[14.847253799438477,-26.39656639099121,5.574693202972412],"min":[-8.380962371826172,-53.625633239746094,-8.253738403320312],"bufferView":0,"byteOffset":0},{"type":"VEC3","componentType":5126,"count":65532,"bufferView":0,"byteOffset":12},{"type":"VEC2","componentType":5126,"count":65532,"bufferView":0,"byteOffset":24},{"type":"VEC3","componentType":5126,"count":65532,"max":[13.475985527038574,-24.654361724853516,5.914445400238037],"min":[-11.188053131103516,-41.2000617980957,-8.039730072021484],"bufferView":1,"byteOffset":0},{"type":"VEC3","componentType":5126,"count":65532,"bufferView":1,"byteOffset":12},{"type":"VEC2","componentType":5126,"count":65532,"bufferView":1,"byteOffset":24},{"type":"VEC3","componentType":5126,"count":65532,"max":[13.46148681640625,-24.654375076293945,6.370673179626465],"min":[-12.130721092224121,-55.395015716552734,-8.04118824005127],"bufferView":2,"byteOffset":0},{"type":"VEC3","componentType":5126,"count":65532,"bufferView":2,"byteOffset":12},{"type":"VEC2","componentType":5126,"count":65532,"bufferView":2,"byteOffset":24},{"type":"VEC3","componentType":5126,"count":65532,"max":[15.045055389404297,-24.743471145629883,6.106293678283691],"min":[-12.1392822265625,-55.34650802612305,-8.380998611450195],"bufferView":3,"byteOffset":0},{"type":"VEC3","componentType":5126,"count":65532,"bufferView":3,"byteOffset":12},{"type":"VEC2","componentType":5126,"count":65532,"bufferView":3,"byteOffset":24},{"type":"VEC3","componentType":5126,"count":65532,"max":[15.034026145935059,-24.740428924560547,6.281857013702393],"min":[-13.468687057495117,-51.8028450012207,-8.36511516571045],"bufferView":4,"byteOffset":0},{"type":"VEC3","componentType":5126,"count":65532,"bufferView":4,"byteOffset":12},{"type":"VEC2","componentType":5126,"count":65532,"bufferView":4,"byteOffset":24},{"type":"VEC3","componentType":5126,"count":65532,"max":[13.959383010864258,-29.152822494506836,6.360330104827881],"min":[-8.735982894897461,-55.381961822509766,-7.866995334625244],"bufferView":5,"byteOffset":0},{"type":"VEC3","componentType":5126,"count":65532,"bufferView":5,"byteOffset":12},{"type":"VEC2","componentType":5126,"count":65532,"bufferView":5,"byteOffset":24},{"type":"VEC3","componentType":5126,"count":14330,"max":[9.732283592224121,-26.701553344726562,2.1881606578826904],"min":[-8.698478698730469,-37.37525939941406,-8.037389755249023],"bufferView":6,"byteOffset":0},{"type":"VEC3","componentType":5126,"count":14330,"bufferView":6,"byteOffset":12},{"type":"VEC2","componentType":5126,"count":14330,"bufferView":6,"byteOffset":24},{"type":"VEC3","componentType":5126,"count":20603,"max":[13.457671165466309,-24.654361724853516,5.946113109588623],"min":[-10.80260944366455,-24.952251434326172,-8.013232231140137],"bufferView":7,"byteOffset":0},{"type":"VEC3","componentType":5126,"count":20603,"bufferView":7,"byteOffset":12},{"type":"VEC2","componentType":5126,"count":20603,"bufferView":7,"byteOffset":24},{"type":"SCALAR","componentType":5125,"count":315507,"bufferView":8,"byteOffset":0},{"type":"SCALAR","componentType":5125,"count":317385,"bufferView":8,"byteOffset":1262028},{"type":"SCALAR","componentType":5125,"count":300876,"bufferView":8,"byteOffset":2531568},{"type":"SCALAR","componentType":5125,"count":278466,"bufferView":8,"byteOffset":3735072},{"type":"SCALAR","componentType":5125,"count":269793,"bufferView":8,"byteOffset":4848936},{"type":"SCALAR","componentType":5125,"count":256740,"bufferView":8,"byteOffset":5928108},{"type":"SCALAR","componentType":5125,"count":52701,"bufferView":8,"byteOffset":6955068},{"type":"SCALAR","componentType":5125,"count":118971,"bufferView":8,"byteOffset":7165872}],"bufferViews":[{"buffer":0,"byteOffset":0,"byteLength":2097024,"byteStride":32,"target":34962},{"buffer":0,"byteOffset":2097024,"byteLength":2097024,"byteStride":32,"target":34962},{"buffer":0,"byteOffset":4194048,"byteLength":2097024,"byteStride":32,"target":34962},{"buffer":0,"byteOffset":6291072,"byteLength":2097024,"byteStride":32,"target":34962},{"buffer":0,"byteOffset":8388096,"byteLength":2097024,"byteStride":32,"target":34962},{"buffer":0,"byteOffset":10485120,"byteLength":2097024,"byteStride":32,"target":34962},{"buffer":0,"byteOffset":12582144,"byteLength":458560,"byteStride":32,"target":34962},{"buffer":0,"byteOffset":13040704,"byteLength":659296,"byteStride":32,"target":34962},{"buffer":0,"byteOffset":13700000,"byteLength":7641756,"target":34963}],"samplers":[{"magFilter":9729,"minFilter":9987,"wrapS":10497,"wrapT":10497}],"textures":[{"source":0,"sampler":0}],"images":[{"mimeType":"image/png","uri":"textures/Loewe_O_Material_u1_v1_baseColor.png"}],"buffers":[{"uri":"scene.bin","byteLength":21341756}],"materials":[{"name":"Loewe_O_Material_u1_v1","doubleSided":true,"pbrMetallicRoughness":{"metallicFactor":0,"baseColorTexture":{"index":0}}}],"meshes":[{"name":"Object_0","primitives":[{"attributes":{"NORMAL":1,"POSITION":0,"TEXCOORD_0":2},"mode":4,"material":0,"indices":24}]},{"name":"Object_1","primitives":[{"attributes":{"NORMAL":4,"POSITION":3,"TEXCOORD_0":5},"mode":4,"material":0,"indices":25}]},{"name":"Object_2","primitives":[{"attributes":{"NORMAL":7,"POSITION":6,"TEXCOORD_0":8},"mode":4,"material":0,"indices":26}]},{"name":"Object_3","primitives":[{"attributes":{"NORMAL":10,"POSITION":9,"TEXCOORD_0":11},"mode":4,"material":0,"indices":27}]},{"name":"Object_4","primitives":[{"attributes":{"NORMAL":13,"POSITION":12,"TEXCOORD_0":14},"mode":4,"material":0,"indices":28}]},{"name":"Object_5","primitives":[{"attributes":{"NORMAL":16,"POSITION":15,"TEXCOORD_0":17},"mode":4,"material":0,"indices":29}]},{"name":"Object_6","primitives":[{"attributes":{"NORMAL":19,"POSITION":18,"TEXCOORD_0":20},"mode":4,"material":0,"indices":30}]},{"name":"Object_7","primitives":[{"attributes":{"NORMAL":22,"POSITION":21,"TEXCOORD_0":23},"mode":4,"material":0,"indices":31}]}],"nodes":[{"name":"Sketchfab_model","translation":[0.31156471371650696,-41.04241561889649,39.3960952758789],"rotation":[0.9998873051952677,0.004170785820657114,-0.013705991312106683,0.004486341175078812],"scale":[0.04779388765675592,0.047793887707185345,0.04779388669964073],"children":[1]},{"name":"Loewe_C.obj.cleaner.materialmerger.gles","children":[2,3,4,5,6,7,8,9]},{"name":"Object_2","mesh":0},{"name":"Object_3","mesh":1},{"name":"Object_4","mesh":2},{"name":"Object_5","mesh":3},{"name":"Object_6","mesh":4},{"name":"Object_7","mesh":5},{"name":"Object_8","mesh":6},{"name":"Object_9","mesh":7}],"scenes":[{"name":"Sketchfab_Scene","nodes":[0]}],"scene":0}